<svg width="24" height="24" viewBox="0 0 24 24" fill="none" xmlns="http://www.w3.org/2000/svg">
<path d="M19.028 16.13C18.404 19.796 15.752 21.824 12.398 21.824C10.474 21.824 8.836 21.122 7.562 19.848C6.314 18.6 5.976 17.222 5.846 15.22H4V13.478H5.768V11.242H4V9.5H5.846C5.976 7.576 6.34 6.198 7.562 4.976C8.836 3.702 10.474 3 12.398 3C15.804 3 18.404 5.028 19.028 8.694H16.168C15.726 6.822 14.452 5.496 12.398 5.496C11.28 5.496 10.344 5.938 9.668 6.64C9.018 7.316 8.784 8.018 8.68 9.5H13.438V11.242H8.576V13.478H13.438V15.22H8.68C8.784 16.78 9.018 17.482 9.668 18.184C10.344 18.886 11.28 19.328 12.398 19.328C14.452 19.328 15.752 18.002 16.194 16.13H19.028Z" fill="#FF4205"/>
</svg>
